<?xml version="1.0" encoding="UTF-8"?>
<svg xmlns="http://www.w3.org/2000/svg" viewBox="0 0 165.9 185.86">
  <defs>
    <style>
      .cls-1 {
        fill: #fff;
      }

      .cls-2 {
        fill: #1d1d1b;
      }
    </style>
  </defs>
  <g id="svg1">
    <rect class="cls-2" x="0" width="165.9" height="185.86"/>
  </g>
  <g id="Capa_2">
    <path id="path1" class="cls-1" d="M126.58,177.18l-12.78-8.66-3.86.84c-7.42,1.62-10.29,1.89-19.54,1.9-6.4,0-9.72-.13-12.8-.54-26.54-3.52-47.24-17.9-54.17-37.65-2.58-7.35-3.12-16.22-1.47-24.32,1.25-6.17,4.91-14.73,9.17-21.44,5.28-8.31,7.42-11.83,8.38-13.74,1.76-3.52,1.84-3.22-1.34-5.17l-2.81-1.72-8.16-.03c-6.91-.02-8.74-.13-11.93-.72-9.46-1.74-15.27-5.04-15.27-8.69,0-1.3.85-2.46,2.01-2.73.39-.09,2.58-.22,4.87-.29,7.05-.22,12.08-2.1,16.46-6.16,2-1.85,2.24-2.21,2.42-3.56.34-2.6,1.7-7.01,2.87-9.34.62-1.23,1.12-2.3,1.12-2.39,0-.29-2.07-.49-8.41-.81-3.48-.18-6.62-.48-6.98-.67-.51-.27-.63-.61-.55-1.53.09-1.04.26-1.26,1.54-1.88,3.38-1.65,11.44-2.51,20.8-2.23,21.35.65,46.04,5.33,56.96,10.8,4.07,2.04,5.11,3.31,4.15,5.11-.49.91-1.89.8-8.31-.67-3.08-.7-5.78-1.28-6-1.28-.29,0-.23.42.2,1.52,2.19,5.58,2.66,15.17,1.15,23.41-.54,2.95-2.33,9.54-4.35,16.02-.69,2.2-1.25,4.1-1.25,4.23s1.91.15,4.24.05c6.85-.3,13.54.35,29.36,2.85,6.21.98,14.84.97,19.48-.03,8.56-1.84,15.11-5.4,20.95-11.37,2.91-2.97,3.24-3.22,4.37-3.22,2.07,0,2.76.91,4.66,6.13,2.93,8.05,4.1,14.96,4.12,24.26.01,7.03-.35,10.46-1.74,16.32-2.78,11.73-8.07,21.19-17.03,30.43l-3.45,3.56v30.52l-.79.79c-.6.6-1.12.78-2.16.77-1.26-.01-2.42-.72-14.15-8.68h0ZM136.81,163.07l-.23-12.56,2.56-2.19c2.97-2.54,5.92-5.75,8.83-9.6,1.91-2.53,4.67-6.92,4.67-7.42,0-.41-1.56.17-6.43,2.43-7.89,3.66-9.13,4.36-11.41,6.42-6.85,6.21-17.03,10.3-28.52,11.46-14.94,1.51-29.16-2.91-38.19-11.87-12.78-12.68-10.97-30.73,4.1-40.79,4.4-2.94,10.99-5.6,16.22-6.57,3.7-.68,2.15-1.03-3.58-.82-5.11.19-9.37.82-13.05,1.91-2.4.71-2.57.47-1.89-2.72.31-1.47,1.29-5.04,2.17-7.94,5.35-17.62,5.98-20.32,6.24-26.76.21-5.16-.17-8.42-1.39-12.16-.9-2.77-2.08-5.26-2.73-5.78-.71-.57-16.11-2.91-29.06-4.43l-6.88-.8-1.14,1.26c-1.37,1.52-3.04,4.72-3.64,6.98-.42,1.61-.4,1.76.6,4.52,1.9,5.25,3.89,7.71,7.91,9.8,3.18,1.66,4.03,2.29,4.62,3.43.67,1.29.36,2.85-.85,4.22-.52.59-.94,1.16-.94,1.26s1.02.78,2.26,1.5c1.24.73,2.33,1.51,2.43,1.75.09.24-.52,2.05-1.36,4.02-1.54,3.61-5.07,9.73-10.05,17.42-5.4,8.33-8.59,15.81-9.76,22.82-.78,4.7-.53,11.55.58,15.76,2.69,10.22,9.2,18.82,19.4,25.6,16.5,10.98,41.22,14.49,62.72,8.92,2.01-.52,3.85-.94,4.1-.94s1.85.98,3.55,2.18c3.07,2.16,9.4,6.5,14.94,10.25,1.58,1.07,3.01,1.95,3.16,1.96.16,0,.18-5.3.05-12.55h0ZM47.37,47.86c-1.11-.56-2.25-2.38-2.25-3.59s1.13-3.02,2.25-3.61c2.17-1.14,5.05.58,5.34,3.2.36,3.19-2.58,5.4-5.34,4ZM28.74,53.33c.82-.82.24-2.5-.85-2.5-.66,0-1.64.95-1.64,1.59,0,.72.63,1.29,1.44,1.29.37,0,.84-.17,1.06-.38ZM78.56,28.08c-.53-.17-3.78-.87-7.23-1.56-10.68-2.15-22.35-3.62-31.81-4.01-2.64-.11-4.96-.25-5.16-.31-.41-.12.1-2.76,1.22-6.24C38.99,5.29,47.65-.64,58.81.05c3.97.25,6.21.85,9.99,2.7,4.28,2.09,7.35,5.16,9.4,9.38,1.89,3.9,2.44,6.59,2.44,11.99,0,4.74.07,4.62-2.08,3.94Z"/>
  </g>
</svg>