<?xml version="1.0" encoding="UTF-8" standalone="no"?>
<!-- Created with Inkscape (http://www.inkscape.org/) -->

<svg
   version="1.1"
   id="svg1"
   width="165.8996"
   height="185.85983"
   viewBox="0 0 165.8996 185.85983"
   sodipodi:docname="quacker_logo.svg"
   inkscape:version="1.4.2 (ebf0e940d0, 2025-05-08)"
   xmlns:inkscape="http://www.inkscape.org/namespaces/inkscape"
   xmlns:sodipodi="http://sodipodi.sourceforge.net/DTD/sodipodi-0.dtd"
   xmlns="http://www.w3.org/2000/svg"
   xmlns:svg="http://www.w3.org/2000/svg">
  <defs
     id="defs1" />
  <sodipodi:namedview
     id="namedview1"
     pagecolor="#ffffff"
     bordercolor="#000000"
     borderopacity="0.25"
     inkscape:showpageshadow="2"
     inkscape:pageopacity="0.0"
     inkscape:pagecheckerboard="0"
     inkscape:deskcolor="#d1d1d1"
     inkscape:zoom="2.9052735"
     inkscape:cx="83.296805"
     inkscape:cy="92.934452"
     inkscape:window-width="1969"
     inkscape:window-height="1203"
     inkscape:window-x="0"
     inkscape:window-y="0"
     inkscape:window-maximized="1"
     inkscape:current-layer="svg1" />
  <path
     style="fill:#364d5d;fill-opacity:1"
     d="m 126.58423,177.18265 -12.77576,-8.66251 -3.86424,0.84118 c -7.41956,1.6151 -10.290518,1.89488 -19.544228,1.90463 -6.40158,0.007 -9.71776,-0.13383 -12.8,-0.54262 -26.54422,-3.52049 -47.23553,-17.9015 -54.17023,-37.64972 -2.57956,-7.34592 -3.11796,-16.22368 -1.47492,-24.32 1.25301,-6.17439 4.9131,-14.730185 9.17126,-21.438695 5.27657,-8.31294 7.42056,-11.82951 8.37953,-13.74411 1.76411,-3.52202 1.8426,-3.21873 -1.33824,-5.17129 l -2.8074,-1.72332 -8.16,-0.0258 c -6.91313,-0.0219 -8.736633,-0.13164 -11.933682,-0.7182 C 5.802513,64.195885 0,60.894645 0,57.246665 c 0,-1.30178 0.854825,-2.46315 2.008857,-2.72923 0.391129,-0.0902 2.583143,-0.2224 4.871143,-0.29382 7.04967,-0.22006 12.079666,-2.10196 16.461442,-6.15881 1.99856,-1.85036 2.24357,-2.21093 2.42233,-3.56487 0.34261,-2.59505 1.70177,-7.01412 2.87203,-9.33795 0.61831,-1.22779 1.1242,-2.30143 1.1242,-2.38584 0,-0.28732 -2.0721,-0.48601 -8.40517,-0.80595 -3.478837,-0.17576 -6.618968,-0.47679 -6.978066,-0.66898 -0.509659,-0.27276 -0.631388,-0.6081 -0.554835,-1.52849 0.08685,-1.044164 0.262833,-1.259386 1.538069,-1.880997 3.382769,-1.648923 11.443652,-2.511364 20.800002,-2.22541 21.35215,0.652578 46.0446,5.333877 56.9613,10.798967 4.07392,2.03948 5.10838,3.31387 4.14744,5.1094 -0.4861,0.90829 -1.88946,0.79589 -8.30874,-0.66548 -3.08,-0.70118 -5.7779,-1.27502 -5.99533,-1.27521 -0.2857,-2.5e-4 -0.2303,0.42118 0.19979,1.51966 2.18645,5.58434 2.65894,15.17312 1.15336,23.40624 -0.53948,2.95011 -2.32813,9.5357 -4.35051,16.0181 -0.68602,2.19893 -1.24731,4.10368 -1.24731,4.23277 0,0.1291 1.908,0.15007 4.24,0.0466 6.84547,-0.30371 13.53513,0.34574 29.359998,2.85037 6.21281,0.98331 14.84223,0.97114 19.47948,-0.0275 8.56191,-1.84376 15.11038,-5.39885 20.94711,-11.37196 2.90606,-2.97397 3.24045,-3.22012 4.37444,-3.22012 2.06964,0 2.76043,0.90868 4.65978,6.12953 2.93002,8.05391 4.10241,14.95871 4.1185,24.255925 0.0122,7.03074 -0.35432,10.46342 -1.74237,16.32 -2.77967,11.7282 -8.07267,21.18662 -17.03119,30.43423 l -3.44576,3.55694 v 15.25896 15.25896 l -0.78545,0.78545 c -0.597,0.597 -1.11526,0.78204 -2.16,0.77123 -1.26185,-0.013 -2.422,-0.72444 -14.15031,-8.67673 z m 10.22732,-14.10927 -0.23461,-12.56023 2.56372,-2.18889 c 2.97122,-2.53681 5.92478,-5.74779 8.82936,-9.5989 1.90598,-2.5271 4.66997,-6.92008 4.66997,-7.42228 0,-0.41456 -1.55578,0.1745 -6.42621,2.43309 -7.88773,3.65783 -9.13048,4.35725 -11.40566,6.41911 -6.85019,6.20792 -17.03451,10.30103 -28.52203,11.46309 -14.939468,1.51127 -29.156428,-2.90685 -38.188238,-11.86751 -12.78266,-12.68198 -10.96874,-30.73206 4.09872,-40.785895 4.40041,-2.9362 10.98664,-5.60275 16.22033,-6.5671 3.69738,-0.68127 2.1464,-1.03451 -3.58493,-0.81649 -5.10912,0.19435 -9.36607,0.8183 -13.05306,1.91322 -2.4035,0.71376 -2.57079,0.47306 -1.88818,-2.71677 0.31357,-1.46532 1.29207,-5.04021 2.17445,-7.94421 5.35259,-17.61603 5.98362,-20.32204 6.24018,-26.75944 0.20554,-5.15718 -0.16688,-8.41949 -1.38796,-12.15815 -0.90485,-2.77042 -2.0808,-5.26004 -2.73244,-5.78489 -0.70688,-0.56934 -16.10601,-2.91448 -29.06496,-4.42633 l -6.88,-0.80265 -1.13695,1.25584 c -1.37405,1.51772 -3.04058,4.71595 -3.63853,6.98266 -0.42368,1.6061 -0.40354,1.75869 0.59668,4.52104 1.90049,5.24865 3.88571,7.70986 7.9085,9.8047 3.1835,1.65778 4.03193,2.28745 4.62345,3.43132 0.66918,1.29407 0.35602,2.85261 -0.84894,4.22498 -0.51932,0.59148 -0.94421,1.15804 -0.94421,1.25905 0,0.101 1.01696,0.77758 2.25992,1.5035 1.24296,0.72593 2.33472,1.51479 2.42614,1.75302 0.0914,0.23823 -0.52278,2.04698 -1.36489,4.01944 -1.54179,3.61134 -5.07422,9.73032 -10.05404,17.41591 -5.39698,8.32939 -8.59374,15.806385 -9.7574,22.821865 -0.78006,4.70278 -0.52849,11.5513 0.57898,15.76173 2.68933,10.22448 9.20126,18.81838 19.39866,25.60074 16.50143,10.9752 41.21876,14.4907 62.719638,8.92048 2.00585,-0.51965 3.85101,-0.94483 4.10034,-0.94483 0.24934,0 1.84818,0.98193 3.55299,2.18206 3.0735,2.16364 9.39752,6.50114 14.93966,10.24677 1.584,1.07054 3.00738,1.952 3.16307,1.9588 0.16332,0.007 0.18382,-5.30154 0.0485,-12.54785 z M 47.369602,47.864235 c -1.11262,-0.56299 -2.2496,-2.37775 -2.2496,-3.59062 0,-1.20575 1.12896,-3.01636 2.2496,-3.60788 2.1686,-1.14465 5.04577,0.57699 5.34096,3.19592 0.36005,3.1944 -2.58154,5.39886 -5.34096,4.00258 z m -18.6336,5.46538 c 0.81603,-0.81604 0.2407,-2.496 -0.85481,-2.496 -0.65538,0 -1.64119,0.95242 -1.64119,1.58559 0,0.72381 0.63477,1.29441 1.44,1.29441 0.3696,0 0.8448,-0.1728 1.056,-0.384 z m 49.824,-25.252433 c -0.528,-0.165781 -3.7793,-0.868518 -7.22511,-1.561637 -10.67645,-2.147553 -22.35162,-3.620836 -31.81489,-4.014702 -2.64,-0.109879 -4.96325,-0.249009 -5.16278,-0.309179 -0.41338,-0.124657 0.0998,-2.757573 1.21579,-6.238051 3.42019,-10.666419 12.07953,-16.59072901 23.23913,-15.89911801 3.97117,0.246111 6.20946,0.85178 9.98786,2.70265501 4.27582,2.094542 7.34736,5.161863 9.39771,9.384803 1.8943,3.901551 2.44229,6.592361 2.44229,11.99258 0,4.740762 0.0656,4.616338 -2.08,3.942649 z"
     id="path1"
     inkscape:label="quacker" />
</svg>
